<svg xmlns="http://www.w3.org/2000/svg" width="42" height="42" fill="none" viewBox="0 0 42 42">
  <path fill="#00F5FF" d="M23.835 13.86H17.22V7.245a.945.945 0 00-1.588-.692L2.402 18.838a.944.944 0 000 1.384l13.23 12.285a.945.945 0 001.588-.692V25.2h4.725c7.928 0 12.932 2.202 16.224 7.14a.945.945 0 001.731-.525c0-8.283-4.207-17.955-16.065-17.955z"/>
  <path fill="#004E51" d="M22.028 23.086H16.39a.938.938 0 00-.94.941V29.4L4.622 19.32 15.45 9.24v5.373a.942.942 0 00.94.941h7.516c9.034 0 13.006 6.506 13.893 13.054-3.582-3.798-8.58-5.522-15.772-5.522z"/>
</svg>
