<svg xmlns="http://www.w3.org/2000/svg" width="42" height="42" fill="none" viewBox="0 0 42 42">
  <path fill="#00F5FF" fill-rule="evenodd" d="M16.448 27.549l-4.135 3.653a2.602 2.602 0 01-2.799.42 2.626 2.626 0 01-1.534-2.39l.008-23.668c0-.938.498-1.803 1.305-2.272a2.594 2.594 0 012.609 0c4.472 2.594 15.44 8.953 20.391 11.828a2.623 2.623 0 011.294 2.528 2.622 2.622 0 01-1.762 2.229l-5.21 1.77 5.73 9.957a3.946 3.946 0 01-1.426 5.373l-3.386 1.975a3.899 3.899 0 01-2.97.395 3.91 3.91 0 01-2.379-1.83c-1.912-3.323-3.826-6.644-5.736-9.968z" clip-rule="evenodd"/>
  <path fill="#004E51" fill-rule="evenodd" d="M10.263 4.815l-.006 24.483 4.268-3.78a2.691 2.691 0 012.216-.638 2.693 2.693 0 011.895 1.32c1.396 2.426 4.236 7.369 5.925 10.308.18.315.474.54.82.632.344.095.712.046 1.023-.137l3.496-2.04a1.362 1.362 0 00.492-1.852l-5.918-10.3a2.725 2.725 0 01-.19-2.314 2.716 2.716 0 011.659-1.615l5.383-1.832L10.263 4.815z" clip-rule="evenodd"/>
</svg>
