<svg xmlns="http://www.w3.org/2000/svg" width="42" height="42" fill="none" viewBox="0 0 42 42">
  <path fill="#004E51" d="M31.92 5.04H10.08a2.94 2.94 0 00-2.94 2.94V33.6a2.94 2.94 0 002.94 2.94h21.84a2.94 2.94 0 002.94-2.94V7.98a2.94 2.94 0 00-2.94-2.94z"/>
  <path fill="#00F5FF" d="M5.04 33.39c0 1.707 1.448 3.097 3.255 3.148l.105.002h2.94v-2.362H8.4c-.443 0-.806-.322-.838-.73l-.002-.058V8.19c0-.415.343-.755.777-.785l.063-.002h2.94V5.04H8.4c-1.82 0-3.303 1.358-3.358 3.052l-.002.098v25.2zM36.96 33.39c0 1.707-1.448 3.097-3.255 3.148l-.105.002h-2.94v-2.362h2.94c.443 0 .806-.322.838-.73l.002-.058V8.19c0-.415-.343-.755-.777-.785l-.063-.002h-2.94V5.04h2.94c1.82 0 3.303 1.358 3.358 3.052l.002.098v25.2z"/>
</svg>
