<svg xmlns="http://www.w3.org/2000/svg" width="42" height="42" fill="none" viewBox="0 0 42 42">
  <g clip-path="url(#clip0)">
    <path fill="#00F5FF" d="M35.767 21.16l.053-5.078a3.389 3.389 0 00-1.797-3.044 3.357 3.357 0 00-1.578-.391 3.4 3.4 0 00-1.666.438 3.404 3.404 0 00-1.77-2.583 3.355 3.355 0 00-1.574-.39 3.43 3.43 0 00-1.987.642 3.375 3.375 0 00-3.037-1.906c-.573 0-1.13.144-1.63.417l.05-4.593a3.392 3.392 0 00-1.798-3.044 3.355 3.355 0 00-1.578-.39c-.91 0-1.771.358-2.423 1.008a3.469 3.469 0 00-1.025 2.433l-.164 15.47-1.281-2.444a3.375 3.375 0 00-4.606-1.392 3.465 3.465 0 00-1.67 2.04 3.426 3.426 0 00.234 2.618l8.982 17.134a.871.871 0 00.78.473l13.37-.013a.9.9 0 00.802-.494c.214-.421 5.243-10.349 5.313-16.912z"/>
    <path fill="#004E51" d="M16.835 36.777L8.1 20.117a1.66 1.66 0 01.683-2.22 1.613 1.613 0 011.53-.008c.284.15.514.383.666.671l1.61 3.075c.153.29.51.968 1.075 1.269.278.148.568.185.863.11 1.072-.273 1.088-1.687 1.092-2.152l.173-16.185a1.655 1.655 0 011.643-1.64c.262 0 .521.064.751.186.535.285.863.84.857 1.45l-.14 13.249c-.006.48.402.899.882.9a.911.911 0 00.903-.902l.06-5.634c.005-.436.178-.847.489-1.156.31-.31.72-.482 1.154-.482a1.609 1.609 0 011.609 1.636l-.074 6.902c-.005.48.404.9.884.9a.905.905 0 00.902-.9l.06-5.633c.005-.437.18-.848.49-1.159.31-.31.72-.481 1.153-.482a1.609 1.609 0 011.609 1.637l-.073 6.903a.885.885 0 001.517.634.906.906 0 00.268-.636l.047-4.363c.005-.437.178-.848.489-1.159a1.627 1.627 0 011.906-.295c.535.284.863.84.856 1.45l-.054 5.078c-.057 5.38-3.951 13.716-4.868 15.605l-12.278.011z"/>
  </g>
  <defs>
    <clipPath id="clip0">
      <path fill="#fff" d="M0 0h42v42H0z"/>
    </clipPath>
  </defs>
</svg>
