<svg xmlns="http://www.w3.org/2000/svg" width="42" height="42" fill="none" viewBox="0 0 42 42">
  <path fill="#00F5FF" d="M10.08 7.14H4.62a.42.42 0 00-.42.42v1.68c0 .232.188.42.42.42h5.46a.42.42 0 00.42-.42V7.56a.42.42 0 00-.42-.42zM19.04 7.14h-5.46a.42.42 0 00-.42.42v1.68c0 .232.188.42.42.42h5.46a.42.42 0 00.42-.42V7.56a.42.42 0 00-.42-.42zM28 7.14h-5.46a.42.42 0 00-.42.42v1.68c0 .232.188.42.42.42H28a.42.42 0 00.42-.42V7.56a.42.42 0 00-.42-.42zM37.38 7.14H31.5a.42.42 0 00-.42.42v1.68c0 .232.188.42.42.42h5.88a.42.42 0 00.42-.42V7.56a.42.42 0 00-.42-.42zM37.8 18.69H5.04a.42.42 0 00-.42.42v1.68c0 .232.189.42.42.42H37.8a.42.42 0 00.42-.42v-1.68a.42.42 0 00-.42-.42zM37.38 30.24H4.62a.42.42 0 00-.42.42v4.2c0 .232.188.42.42.42h32.76a.42.42 0 00.42-.42v-4.2a.42.42 0 00-.42-.42z"/>
</svg>
