<svg xmlns="http://www.w3.org/2000/svg" width="42" height="42" fill="none" viewBox="0 0 42 42">
  <path fill="#00F5FF" d="M31.412 2.523a.84.84 0 00-.512.223L8.663 24.164a.84.84 0 00-.25.473l-1.6 9.213a72.994 72.994 0 01-3.453-1.824.841.841 0 00-.84 1.456s2.592 1.492 5.855 2.98c3.262 1.487 7.146 3.018 10.107 3.018 1.554 0 2.841-.613 3.872-1.444 1.032-.83 1.847-1.877 2.639-2.874.792-.997 1.555-1.933 2.389-2.598.834-.666 1.7-1.063 2.861-1.063h5.04a.84.84 0 100-1.68h-5.04c-1.57 0-2.87.6-3.911 1.43-1.042.831-1.86 1.876-2.652 2.874-.793.998-1.563 1.947-2.389 2.612-.826.665-1.67 1.063-2.809 1.063-2.34 0-6.228-1.422-9.412-2.874-.036-.017-.068-.036-.105-.053l8.086-2.572a.841.841 0 00.341-.21l21.423-20.998a.84.84 0 00.026-1.168l-6.747-7.14a.84.84 0 00-.682-.262z"/>
  <path fill="#004E51" d="M31.451 4.557l5.592 5.919-20.044 19.647-6.34-5.539L31.45 4.557zM9.871 26.12l5.618 4.921-6.865 2.179 1.247-7.1z"/>
</svg>
