<svg xmlns="http://www.w3.org/2000/svg" width="42" height="42" fill="none" viewBox="0 0 42 42">
  <path fill="#00F5FF" d="M20.8 4C11.524 4 4 11.524 4 20.8s7.524 16.8 16.8 16.8 16.8-7.524 16.8-16.8S30.076 4 20.8 4z"/>
  <path fill="#004E51" d="M21.747 35.376V30.36c0-.474-.332-.9-.805-.994-.615-.095-1.088.378-1.088.946v5.064a.305.305 0 01-.284.284c-7.24-.615-13.014-6.389-13.63-13.63 0-.142.142-.284.284-.284h5.017c.473 0 .899-.33.994-.804.094-.615-.38-1.088-.947-1.088H6.224a.305.305 0 01-.284-.284c.616-7.241 6.39-13.014 13.63-13.63.142 0 .284.142.284.284v5.017c0 .473.33.899.804.993.615.095 1.089-.378 1.089-.946V6.224c0-.142.142-.284.284-.284 7.24.616 13.014 6.389 13.581 13.582a.305.305 0 01-.283.284h-4.97c-.473 0-.899.331-.993.805-.095.615.378 1.088.946 1.088h5.064c.142 0 .284.142.284.284-.615 7.24-6.389 13.014-13.582 13.582-.19.095-.331-.047-.331-.19z"/>
</svg>
