<svg xmlns="http://www.w3.org/2000/svg" width="42" height="42" fill="none" viewBox="0 0 42 42">
  <g clip-path="url(#clip0)">
    <path fill="#00F5FF" fill-rule="evenodd" d="M21 8.275a5.776 5.776 0 110 11.552 5.776 5.776 0 010-11.552zM21 20.848c4.43 0 8.224 3.17 9.802 7.666A14.06 14.06 0 0121 32.474a14.06 14.06 0 01-9.801-3.96c1.578-4.497 5.371-7.666 9.801-7.666zM33.963 7.905a4.736 4.736 0 110 9.473 4.736 4.736 0 010-9.473zM33.963 18.215c3.633 0 6.743 2.598 8.037 6.285a11.527 11.527 0 01-8.037 3.247c-.545 0-1.08-.038-1.605-.11-.947-2.527-2.569-4.757-4.663-6.306 1.58-1.92 3.804-3.116 6.268-3.116zM8.038 7.905a4.736 4.736 0 110 9.473 4.736 4.736 0 010-9.473zM8.037 18.215c2.464 0 4.688 1.197 6.268 3.117-2.094 1.549-3.716 3.779-4.662 6.304-.525.073-1.061.111-1.606.111A11.53 11.53 0 010 24.5c1.294-3.687 4.405-6.285 8.037-6.285z" clip-rule="evenodd"/>
  </g>
  <defs>
    <clipPath id="clip0">
      <path fill="#fff" d="M0 0h42v42H0z"/>
    </clipPath>
  </defs>
</svg>
