<svg xmlns="http://www.w3.org/2000/svg" width="42" height="42" fill="none" viewBox="0 0 42 42">
  <path fill="#00F5FF" d="M20.453 26.25A5.253 5.253 0 0025.708 21v-8.75c0-2.9-2.353-5.25-5.255-5.25a5.253 5.253 0 00-5.255 5.25V21c0 2.9 2.352 5.25 5.255 5.25zm8.758-8.75h-.875a.875.875 0 00-.876.875V21c0 4.09-3.53 7.373-7.707 6.966-3.64-.355-6.307-3.624-6.307-7.278v-2.313a.875.875 0 00-.876-.875h-.876a.875.875 0 00-.876.875v2.196c0 4.902 3.502 9.272 8.321 9.936v1.868h-3.066a.875.875 0 00-.875.875v.875c0 .483.392.875.875.875h8.759a.875.875 0 00.876-.875v-.875a.875.875 0 00-.876-.875h-3.065v-1.847c4.691-.643 8.32-4.666 8.32-9.528v-2.625a.875.875 0 00-.876-.875z"/>
</svg>
