<svg xmlns="http://www.w3.org/2000/svg" width="42" height="42" fill="none" viewBox="0 0 42 42">
  <path fill="#00F5FF" d="M31.11 10.896a3.03 3.03 0 00-4.302 0l-5.806 5.8-5.797-5.8a3.053 3.053 0 10-4.303 4.336l5.798 5.8-5.798 5.774a3.048 3.048 0 002.182 5.093 3.045 3.045 0 002.12-.789l5.798-5.799 5.806 5.8a3.045 3.045 0 004.302 0 3.047 3.047 0 000-4.305L25.313 21 31.11 15.2a3.047 3.047 0 000-4.304zm-1.12 3.182l-6.363 6.364a.796.796 0 000 1.122l6.362 6.364a1.457 1.457 0 01-2.06 2.06l-6.362-6.363a.795.795 0 00-1.121 0l-6.363 6.363a1.456 1.456 0 11-2.06-2.06l6.363-6.364a.795.795 0 000-1.122l-6.362-6.364a1.456 1.456 0 012.06-2.028l6.362 6.364a.795.795 0 001.121 0l6.362-6.364a1.455 1.455 0 012.06 2.028z"/>
</svg>
