<svg xmlns="http://www.w3.org/2000/svg" width="42" height="42" fill="none" viewBox="0 0 42 42">
  <path fill="#00F5FF" d="M17.9 16.6a1.1 1.1 0 100-2.2 1.1 1.1 0 000 2.2z"/>
  <path fill="#00F5FF" d="M11.3 32h19.8a3.3 3.3 0 003.3-3.3V13.3a3.3 3.3 0 00-3.3-3.3H11.3A3.3 3.3 0 008 13.3v15.4a3.3 3.3 0 003.3 3.3zm19.8-2.2H11.3a1.1 1.1 0 01-1.1-1.1v-1.745l4.4-4.4 3.622 3.623a1.1 1.1 0 001.556 0l6.922-6.923 5.5 5.5V28.7a1.1 1.1 0 01-1.1 1.1zM11.3 12.2h19.8a1.1 1.1 0 011.1 1.1v8.345l-4.722-4.723a1.1 1.1 0 00-1.556 0L19 23.845l-3.622-3.623a1.1 1.1 0 00-1.556 0L10.2 23.845V13.3a1.1 1.1 0 011.1-1.1z"/>
</svg>
