<svg xmlns="http://www.w3.org/2000/svg" width="42" height="42" fill="none" viewBox="0 0 42 42">
  <path fill="#1BF3FD" d="M14.045 30.767A4.2 4.2 0 0017.056 32c1.146 0 2.193-.454 3.011-1.233L33.748 17.21a4.183 4.183 0 000-5.968 4.274 4.274 0 00-6.022 0l-10.67 10.574-2.782-2.757a4.274 4.274 0 00-6.022 0 4.183 4.183 0 000 5.968l5.793 5.741zM9.659 20.42c.884-.876 2.357-.876 3.24 0l3.47 3.438c.393.39 1.014.39 1.374 0l11.358-11.255a2.326 2.326 0 013.24 0 2.276 2.276 0 010 3.211L18.66 29.373a2.29 2.29 0 01-1.604.648 2.263 2.263 0 01-1.636-.68l-5.76-5.71c-.917-.875-.917-2.303 0-3.21z"/>
</svg>
