<svg xmlns="http://www.w3.org/2000/svg" width="42" height="42" fill="none" viewBox="0 0 42 42">
  <path fill="#00F5FF" d="M23.25 10a4.125 4.125 0 014.125 4.125v4.202l7.45-5.32c.91-.65 2.175 0 2.175 1.118v13.75c0 1.118-1.264 1.769-2.174 1.119l-7.451-5.322v4.203A4.125 4.125 0 0123.25 32H8.125A4.125 4.125 0 014 27.875v-13.75A4.125 4.125 0 018.125 10H23.25zm0 2.75H8.125c-.76 0-1.375.616-1.375 1.375v13.75c0 .76.616 1.375 1.375 1.375H23.25c.76 0 1.375-.616 1.375-1.375v-13.75c0-.76-.616-1.375-1.375-1.375zm11 4.047L28.366 21l5.884 4.203v-8.406z"/>
</svg>
