<svg xmlns="http://www.w3.org/2000/svg" width="42" height="42" fill="none" viewBox="0 0 42 42">
  <path fill="#00F5FF" d="M21.869 26.25c3.208 0 5.808-2.35 5.808-5.25v-8.75c0-2.9-2.6-5.25-5.808-5.25-3.208 0-5.808 2.35-5.808 5.25V21c0 2.9 2.6 5.25 5.808 5.25zm9.68-8.75h-.968c-.535 0-.968.392-.968.875V21c0 4.09-3.902 7.373-8.518 6.966-4.023-.355-6.97-3.624-6.97-7.278v-2.313c0-.483-.434-.875-.969-.875h-.968c-.535 0-.968.392-.968.875v2.196c0 4.902 3.87 9.272 9.197 9.936v1.868h-3.389c-.534 0-.967.392-.967.875v.875c0 .483.433.875.968.875h9.68c.535 0 .968-.392.968-.875v-.875c0-.483-.433-.875-.968-.875h-3.388v-1.847c5.186-.643 9.196-4.666 9.196-9.528v-2.625c0-.483-.433-.875-.968-.875z"/>
  <path stroke="#00F5FF" stroke-width="2" d="M0-1h38.09" transform="matrix(.75446 .65635 -.72828 .68528 7 9)"/>
</svg>
