<svg xmlns="http://www.w3.org/2000/svg" width="42" height="42" fill="none" viewBox="0 0 42 42">
  <path fill="#00F5FF" d="M24.5 10a1.1 1.1 0 01.915.49l1.874 2.81H31.1a3.3 3.3 0 013.3 3.3v12.1a3.3 3.3 0 01-3.3 3.3H11.3A3.3 3.3 0 018 28.7V16.6a3.3 3.3 0 013.3-3.3h3.811l1.874-2.81A1.1 1.1 0 0117.9 10h6.6zm-.589 2.2H18.49l-1.874 2.81a1.1 1.1 0 01-.915.49h-4.4a1.1 1.1 0 00-1.1 1.1v12.1a1.1 1.1 0 001.1 1.1h19.8a1.1 1.1 0 001.1-1.1V16.6a1.1 1.1 0 00-1.1-1.1h-4.4a1.1 1.1 0 01-.915-.49L23.91 12.2zM21.2 16.6a5.5 5.5 0 110 11 5.5 5.5 0 010-11zm0 2.2a3.3 3.3 0 100 6.6 3.3 3.3 0 000-6.6z"/>
  <path fill="#00F5FF" d="M24.5 10a1.1 1.1 0 01.915.49l1.874 2.81H31.1a3.3 3.3 0 013.3 3.3v12.1a3.3 3.3 0 01-3.3 3.3H11.3A3.3 3.3 0 018 28.7V16.6a3.3 3.3 0 013.3-3.3h3.811l1.874-2.81A1.1 1.1 0 0117.9 10h6.6zm-.589 2.2H18.49l-1.874 2.81a1.1 1.1 0 01-.915.49h-4.4a1.1 1.1 0 00-1.1 1.1v12.1a1.1 1.1 0 001.1 1.1h19.8a1.1 1.1 0 001.1-1.1V16.6a1.1 1.1 0 00-1.1-1.1h-4.4a1.1 1.1 0 01-.915-.49L23.91 12.2zM21.2 16.6a5.5 5.5 0 110 11 5.5 5.5 0 010-11zm0 2.2a3.3 3.3 0 100 6.6 3.3 3.3 0 000-6.6z"/>
</svg>
