<svg width="96" height="119" viewBox="0 0 96 119" fill="none" xmlns="http://www.w3.org/2000/svg">
<path d="M48 64.2839C64.5685 64.2839 78 50.0054 78 32.392C78 14.7785 64.5685 0.5 48 0.5C31.4315 0.5 18 14.7785 18 32.392C18 50.0054 31.4315 64.2839 48 64.2839Z" fill="#C4C4C4" fill-opacity="0.08"/>
<path d="M78.07 70.9597C74.1645 75.2369 69.4911 78.6372 64.3268 80.9592C59.1625 83.2812 53.6122 84.4777 48.005 84.4777C42.3978 84.4777 36.8475 83.2812 31.6832 80.9592C26.5189 78.6372 21.8455 75.2369 17.94 70.9597C12.5694 73.7646 8.04347 78.1099 4.87337 83.505C1.70327 88.9 0.0152688 95.1299 0 101.491V118.5H96V101.491C95.9856 95.131 94.2991 88.9019 91.1309 83.507C87.9626 78.1121 83.4387 73.7661 78.07 70.9597Z" fill="#C4C4C4" fill-opacity="0.08"/>
</svg>
