<svg width="32" height="32" viewBox="0 0 32 32" fill="none" xmlns="http://www.w3.org/2000/svg">
<circle cx="16" cy="16" r="16" fill="#082B41" fill-opacity="0.7"/>
<path d="M16 17.3334C16.7363 17.3334 17.3333 16.7365 17.3333 16.0001C17.3333 15.2637 16.7363 14.6667 16 14.6667C15.2636 14.6667 14.6666 15.2637 14.6666 16.0001C14.6666 16.7365 15.2636 17.3334 16 17.3334Z" stroke="#00F5FF" stroke-width="2" stroke-linecap="round" stroke-linejoin="round"/>
<path d="M16 9.33341C16.7363 9.33341 17.3333 8.73646 17.3333 8.00008C17.3333 7.2637 16.7363 6.66675 16 6.66675C15.2636 6.66675 14.6666 7.2637 14.6666 8.00008C14.6666 8.73646 15.2636 9.33341 16 9.33341Z" stroke="#00F5FF" stroke-width="2" stroke-linecap="round" stroke-linejoin="round"/>
<path d="M16 25.3334C16.7363 25.3334 17.3333 24.7365 17.3333 24.0001C17.3333 23.2637 16.7363 22.6667 16 22.6667C15.2636 22.6667 14.6666 23.2637 14.6666 24.0001C14.6666 24.7365 15.2636 25.3334 16 25.3334Z" stroke="#00F5FF" stroke-width="2" stroke-linecap="round" stroke-linejoin="round"/>
</svg>
