<svg width="32" height="32" viewBox="0 0 32 32" fill="none" xmlns="http://www.w3.org/2000/svg">
<circle cx="16" cy="16" r="16" fill="#082B41" fill-opacity="0.7"/>
<path d="M16 20.125C18.41 20.125 20.3636 18.2782 20.3636 16V9.125C20.3636 6.8468 18.41 5 16 5C13.59 5 11.6364 6.8468 11.6364 9.125V16C11.6364 18.2782 13.59 20.125 16 20.125ZM23.2727 13.25H22.5455C22.1436 13.25 21.8182 13.5577 21.8182 13.9375V16C21.8182 19.2141 18.8868 21.793 15.4186 21.4734C12.3959 21.1945 10.1818 18.6258 10.1818 15.7551V13.9375C10.1818 13.5577 9.85636 13.25 9.45455 13.25H8.72727C8.32545 13.25 8 13.5577 8 13.9375V15.6631C8 19.5148 10.9077 22.9485 14.9091 23.4701V24.9375H12.3636C11.9618 24.9375 11.6364 25.2452 11.6364 25.625V26.3125C11.6364 26.6923 11.9618 27 12.3636 27H19.6364C20.0382 27 20.3636 26.6923 20.3636 26.3125V25.625C20.3636 25.2452 20.0382 24.9375 19.6364 24.9375H17.0909V23.4864C20.9868 22.9811 24 19.8199 24 16V13.9375C24 13.5577 23.6745 13.25 23.2727 13.25Z" fill="#00F5FF"/>
</svg>
