<svg width="14" height="14" viewBox="0 0 14 14" fill="none" xmlns="http://www.w3.org/2000/svg">
<path d="M6.18683 11.9012C7.42842 11.901 8.63422 11.4908 9.61225 10.7361L12.6872 13.7704L13.6763 12.7944L10.6013 9.76003C11.3666 8.79482 11.7825 7.60467 11.7828 6.37916C11.7828 3.33444 9.2723 0.857117 6.18683 0.857117C3.10136 0.857117 0.590881 3.33444 0.590881 6.37916C0.590881 9.42388 3.10136 11.9012 6.18683 11.9012ZM6.18683 2.23763C8.50146 2.23763 10.3838 4.09511 10.3838 6.37916C10.3838 8.66322 8.50146 10.5207 6.18683 10.5207C3.87221 10.5207 1.98987 8.66322 1.98987 6.37916C1.98987 4.09511 3.87221 2.23763 6.18683 2.23763Z" fill="#C9C9C9"/>
</svg>
